
        <svg xmlns="http://www.w3.org/2000/svg" xmlns:xlink="http://www.w3.org/1999/xlink" version="1.1" width="3192" height="3192" viewBox="0 0 3192 3192">
			
			<g transform="scale(9.6) translate(10, 10)">
				<defs id="SvgjsDefs1195"/><g id="SvgjsG1196" featureKey="rootContainer" transform="matrix(2.94811320754717,0,0,2.94811320754717,0,0)" fill="#000"><rect xmlns="http://www.w3.org/2000/svg" width="106" height="106" rx="15" ry="15"/></g><g id="SvgjsG1197" featureKey="symbolFeature-0" transform="matrix(1.0368000253125007,0,0,1.0368000253125007,116.40447793956244,92.49088008400587)" fill="#ffffff"><path xmlns="http://www.w3.org/2000/svg" d="M37.4,56.3c0,0,1.9-3,6.1-0.6C47.6,58.1,50,56,50,56s-4.4,5-9,4.5C36.5,60,37.4,56.3,37.4,56.3z"/><path xmlns="http://www.w3.org/2000/svg" d="M37.3,56.4c0,0-1.9-3-6.1-0.6c-4.1,2.4-6.5,0.3-6.5,0.3s4.4,5,9,4.5C38.2,60.1,37.3,56.4,37.3,56.4z"/><g xmlns="http://www.w3.org/2000/svg"><path class="st0" d="M43.9,28.3c-2.3-0.3-4.8-0.5-7.5-0.5c-2.5,0-4.9,0.1-7.1,0.4C35.5,29.8,41.2,28.9,43.9,28.3z" style="stroke: #fcfcfc; stroke-miterlimit: 10;"/><path class="st0" d="M45.6,28.5L45,32c-8.2,4.2-16.3,0-16.3,0l-0.6-3.6c-5.5,0.8-9.2,2.5-9.2,4.3c0,2.7,7.9,4.9,17.6,4.9   c9.7,0,17.6-2.2,17.6-4.9C54.1,30.9,50.7,29.4,45.6,28.5z" style="stroke: #fcfcfc; stroke-miterlimit: 10;"/></g><g xmlns="http://www.w3.org/2000/svg"><path class="st0" d="M29.7,32.4C38,36,45,32,45,32C38.5,35.3,32.1,33.4,29.7,32.4z" style="stroke: #fcfcfc; stroke-miterlimit: 10;"/><path class="st0" d="M24.2,4.3L28,27.8c9.1,2.9,17.7,0,17.7,0L45,32l5.6-27.7C37.9-2.1,24.2,4.3,24.2,4.3z" style="stroke: #fcfcfc; stroke-miterlimit: 10;"/></g><circle xmlns="http://www.w3.org/2000/svg" class="st1" cx="43.8" cy="47.1" r="5" style="fill: none; stroke: #fcfcfc; stroke-miterlimit: 10;"/><ellipse xmlns="http://www.w3.org/2000/svg" class="st0" cx="50.2" cy="47" rx="1.3" ry="1.7" style="stroke: #fcfcfc; stroke-miterlimit: 10;"/><circle xmlns="http://www.w3.org/2000/svg" cx="50.1" cy="50.3" r="0.9"/><circle xmlns="http://www.w3.org/2000/svg" cx="50.3" cy="52.2" r="0.9"/><circle xmlns="http://www.w3.org/2000/svg" cx="50.6" cy="54.1" r="0.9"/><circle xmlns="http://www.w3.org/2000/svg" cx="51.3" cy="55.9" r="0.9"/><circle xmlns="http://www.w3.org/2000/svg" cx="52.3" cy="57.5" r="0.9"/><circle xmlns="http://www.w3.org/2000/svg" cx="53.7" cy="58.8" r="0.9"/><circle xmlns="http://www.w3.org/2000/svg" cx="55.6" cy="58.8" r="0.9"/><circle xmlns="http://www.w3.org/2000/svg" cx="56.9" cy="57.5" r="0.9"/><circle xmlns="http://www.w3.org/2000/svg" cx="37.3" cy="68.1" r="2.1"/><path xmlns="http://www.w3.org/2000/svg" d="M38.3,67.4l5.5-2.9c0,0,1.4,3.9,0,6.4l-5.6-2.1L38.3,67.4z"/><path xmlns="http://www.w3.org/2000/svg" d="M36.4,67.4l-5.5-2.9c0,0-1.4,3.9,0,6.4l5.6-2.1L36.4,67.4z"/></g><g id="SvgjsG1198" featureKey="nameFeature-0" transform="matrix(1.0855990080259552,0,0,1.0855990080259552,55.99999844703816,175.44798666987253)" fill="#ffffff"><path d="M17.12 40 l0 -21 l-5.4 13.28 l-3.12 -0.04 l-5.24 -13.16 l0 20.92 l-3.36 0 l0 -30 l3.24 0 l6.96 17.24 l7.04 -17.24 l3.24 0 l0 30 l-3.36 0 z M38.731 40 l-6 -11.8 l-4.36 0 l0 11.8 l-3.32 0 l0 -30 l6.96 0 c1.5733 0 2.92 0.24668 4.04 0.74 s2.04 1.16 2.76 2 s1.2533 1.8 1.6 2.88 s0.52 2.2067 0.52 3.38 c0 0.93332 -0.11332 1.84 -0.34 2.72 s-0.55336 1.6933 -0.98004 2.44 s-0.92668 1.42 -1.5 2.02 s-1.1933 1.0733 -1.86 1.42 l6.68 12.4 l-4.2 0 z M31.771 13.32 l-3.4 0.000039062 l0 11.4 l3.64 0 c1.0933 0 1.9933 -0.16668 2.7 -0.5 s1.26 -0.77332 1.66 -1.32 s0.68 -1.1734 0.84 -1.88 s0.24 -1.4467 0.24 -2.22 s-0.12668 -1.4933 -0.38 -2.16 s-0.62 -1.2467 -1.1 -1.74 s-1.0733 -0.88 -1.78 -1.16 s-1.5134 -0.42 -2.42 -0.42 z M45.422000000000004 40 l0 -3.08 l3.16 0 l0 3.08 l-3.16 0 z M61.35300000000001 13.64 l0 26.36 l-3.6 0 l0 -26.36 l-5.88 0 l0 -3.64 l15.36 0 l0 3.64 l-5.88 0 z M70.444 40 l0 -30 l3 0 l0 30 l-3 0 z M84.25500000000001 29.28 l-3.1599 0 l0 10.72 l-3.6 0 l0 -30 l7.32 0 c2.64 0 4.7 0.85332 6.18 2.56 s2.22 4.1068 2.22 7.2 c0 1.3867 -0.21332 2.66 -0.64 3.82 s-1.0334 2.16 -1.82 3 s-1.7334 1.5 -2.84 1.98 s-2.3267 0.72 -3.66 0.72 z M84.095 13.52 l-3 0.00011719 l0 12.16 l2.6 0 c1.12 0 2.0533 -0.16 2.8 -0.48 s1.3467 -0.75332 1.8 -1.3 s0.78 -1.18 0.98 -1.9 s0.3 -1.4933 0.3 -2.32 c0 -0.90668 -0.07332 -1.7334 -0.22 -2.48 s-0.42 -1.3934 -0.82 -1.94 s-0.96 -0.97336 -1.68 -1.28 s-1.64 -0.46 -2.76 -0.46 z M103.866 40.36 c-1.3333 0 -2.5199 -0.2 -3.5599 -0.6 s-1.9 -1.0267 -2.58 -1.88 s-1.18 -1.96 -1.5 -3.32 s-0.44 -2.9867 -0.36 -4.88 l3.68 0 c0 0.96 0.02668 1.8867 0.08 2.78 s0.20664 1.68 0.45996 2.36 s0.64664 1.22 1.18 1.62 s1.2933 0.6 2.28 0.6 c0.85332 0 1.5666 -0.12668 2.14 -0.38 s1.0333 -0.59332 1.38 -1.02 s0.59336 -0.93336 0.74004 -1.52 s0.22 -1.2134 0.22 -1.88 c-0.02668 -1.44 -0.5 -2.5867 -1.42 -3.44 s-2.1 -1.5866 -3.54 -2.2 c-1.1733 -0.48 -2.22 -0.96668 -3.14 -1.46 s-1.6867 -1.06 -2.3 -1.7 s-1.08 -1.3867 -1.4 -2.24 s-0.48 -1.9066 -0.48 -3.16 c0 -2.7733 0.70668 -4.8532 2.12 -6.24 s3.4133 -2.08 6 -2.08 c2.2667 0 4.06 0.70668 5.38 2.12 s1.98 3.48 1.98 6.2 l0 2.84 l-3.52 0 l0 -3.04 c0 -1.44 -0.31332 -2.6 -0.94 -3.48 s-1.62 -1.32 -2.98 -1.32 c-1.68 0 -2.8667 0.44 -3.56 1.32 s-1.0133 2.12 -0.96 3.72 c0.02668 0.66668 0.14 1.24 0.34 1.72 s0.48668 0.9 0.86 1.26 s0.82664 0.69332 1.36 1 s1.16 0.62 1.88 0.94 c0.88 0.4 1.7533 0.82668 2.62 1.28 s1.6734 1 2.42 1.64 c0.77332 0.69332 1.4266 1.5333 1.96 2.52 s0.8 2.1867 0.8 3.6 c0 2.72 -0.68 4.7868 -2.04 6.2 s-3.2267 2.12 -5.6 2.12 z M122.15700000000001 13.64 l0 26.36 l-3.6 0 l0 -26.36 l-5.88 0 l0 -3.64 l15.36 0 l0 3.64 l-5.88 0 z M130.848 40 l0 -30 l14.72 0 l0 3.76 l-11.36 0 l0 9.24 l11.28 0 l0 3.32 l-11.28 0 l0 9.92 l11.64 0 l0 3.76 l-15 0 z M162.33900000000003 40 l-6 -11.8 l-4.36 0 l0 11.8 l-3.32 0 l0 -30 l6.96 0 c1.5733 0 2.92 0.24668 4.04 0.74 s2.04 1.16 2.76 2 s1.2533 1.8 1.6 2.88 s0.52 2.2067 0.52 3.38 c0 0.93332 -0.11332 1.84 -0.34 2.72 s-0.55336 1.6933 -0.98004 2.44 s-0.92668 1.42 -1.5 2.02 s-1.1933 1.0733 -1.86 1.42 l6.68 12.4 l-4.2 0 z M155.37900000000002 13.32 l-3.4 0.000039062 l0 11.4 l3.64 0 c1.0933 0 1.9933 -0.16668 2.7 -0.5 s1.26 -0.77332 1.66 -1.32 s0.68 -1.1734 0.84 -1.88 s0.24 -1.4467 0.24 -2.22 s-0.12668 -1.4933 -0.38 -2.16 s-0.62 -1.2467 -1.1 -1.74 s-1.0733 -0.88 -1.78 -1.16 s-1.5134 -0.42 -2.42 -0.42 z M176.59000000000003 40.36 c-1.3333 0 -2.5199 -0.2 -3.5599 -0.6 s-1.9 -1.0267 -2.58 -1.88 s-1.18 -1.96 -1.5 -3.32 s-0.44 -2.9867 -0.36 -4.88 l3.68 0 c0 0.96 0.02668 1.8867 0.08 2.78 s0.20664 1.68 0.45996 2.36 s0.64664 1.22 1.18 1.62 s1.2933 0.6 2.28 0.6 c0.85332 0 1.5666 -0.12668 2.14 -0.38 s1.0333 -0.59332 1.38 -1.02 s0.59336 -0.93336 0.74004 -1.52 s0.22 -1.2134 0.22 -1.88 c-0.02668 -1.44 -0.5 -2.5867 -1.42 -3.44 s-2.1 -1.5866 -3.54 -2.2 c-1.1733 -0.48 -2.22 -0.96668 -3.14 -1.46 s-1.6867 -1.06 -2.3 -1.7 s-1.08 -1.3867 -1.4 -2.24 s-0.48 -1.9066 -0.48 -3.16 c0 -2.7733 0.70668 -4.8532 2.12 -6.24 s3.4133 -2.08 6 -2.08 c2.2667 0 4.06 0.70668 5.38 2.12 s1.98 3.48 1.98 6.2 l0 2.84 l-3.52 0 l0 -3.04 c0 -1.44 -0.31332 -2.6 -0.94 -3.48 s-1.62 -1.32 -2.98 -1.32 c-1.68 0 -2.8667 0.44 -3.56 1.32 s-1.0133 2.12 -0.96 3.72 c0.02668 0.66668 0.14 1.24 0.34 1.72 s0.48668 0.9 0.86 1.26 s0.82664 0.69332 1.36 1 s1.16 0.62 1.88 0.94 c0.88 0.4 1.7533 0.82668 2.62 1.28 s1.6734 1 2.42 1.64 c0.77332 0.69332 1.4266 1.5333 1.96 2.52 s0.8 2.1867 0.8 3.6 c0 2.72 -0.68 4.7868 -2.04 6.2 s-3.2267 2.12 -5.6 2.12 z"/></g>
			</g>
		</svg>
	